<svg xmlns="http://www.w3.org/2000/svg" viewBox="0 0 1000 1250" width="1000" height="1250" role="img" aria-label="Platzhalterbild: VERBRANNTE BRIEFE">
  <defs>
    <linearGradient id="bg-6" x1="0%" y1="0%" x2="100%" y2="100%">
      <stop offset="0%" stop-color="#14100f"/>
      <stop offset="55%" stop-color="#0a0908"/>
      <stop offset="100%" stop-color="#1a0d0d"/>
    </linearGradient>
    <radialGradient id="glow-6" cx="50%" cy="42%" r="60%">
      <stop offset="0%" stop-color="#a11c1c" stop-opacity="0.16"/>
      <stop offset="100%" stop-color="#a11c1c" stop-opacity="0"/>
    </radialGradient>
  </defs>
  <rect width="1000" height="1250" fill="url(#bg-6)"/>
  <rect width="1000" height="1250" fill="url(#glow-6)"/>
  <circle cx="793.3" cy="1027.4" r="1.1" fill="#ece7e2" opacity="0.046"/>
    <circle cx="0.5" cy="828.5" r="1.1" fill="#ece7e2" opacity="0.076"/>
    <circle cx="373.2" cy="962.7" r="0.9" fill="#ece7e2" opacity="0.078"/>
    <circle cx="729.8" cy="517.5" r="1.2" fill="#ece7e2" opacity="0.071"/>
    <circle cx="193.0" cy="692.0" r="1.5" fill="#ece7e2" opacity="0.046"/>
    <circle cx="803.4" cy="857.1" r="1.6" fill="#ece7e2" opacity="0.050"/>
    <circle cx="93.1" cy="1000.4" r="1.5" fill="#ece7e2" opacity="0.057"/>
    <circle cx="93.8" cy="246.5" r="1.3" fill="#ece7e2" opacity="0.047"/>
    <circle cx="951.4" cy="735.7" r="0.8" fill="#ece7e2" opacity="0.069"/>
    <circle cx="360.4" cy="1165.9" r="1.7" fill="#ece7e2" opacity="0.061"/>
    <circle cx="644.6" cy="872.4" r="1.5" fill="#ece7e2" opacity="0.089"/>
    <circle cx="28.4" cy="451.7" r="1.3" fill="#ece7e2" opacity="0.048"/>
    <circle cx="589.2" cy="112.1" r="1.6" fill="#ece7e2" opacity="0.062"/>
    <circle cx="116.8" cy="828.4" r="0.9" fill="#ece7e2" opacity="0.042"/>
    <circle cx="483.7" cy="172.6" r="0.8" fill="#ece7e2" opacity="0.082"/>
    <circle cx="698.2" cy="15.7" r="1.5" fill="#ece7e2" opacity="0.031"/>
    <circle cx="332.9" cy="1130.5" r="1.3" fill="#ece7e2" opacity="0.048"/>
    <circle cx="377.4" cy="486.5" r="0.7" fill="#ece7e2" opacity="0.090"/>
    <circle cx="53.8" cy="528.6" r="1.5" fill="#ece7e2" opacity="0.054"/>
    <circle cx="981.0" cy="306.6" r="1.8" fill="#ece7e2" opacity="0.084"/>
    <circle cx="670.2" cy="1111.9" r="1.1" fill="#ece7e2" opacity="0.080"/>
    <circle cx="796.1" cy="645.9" r="1.1" fill="#ece7e2" opacity="0.072"/>
    <circle cx="409.1" cy="107.4" r="1.5" fill="#ece7e2" opacity="0.046"/>
    <circle cx="487.7" cy="980.0" r="0.7" fill="#ece7e2" opacity="0.031"/>
    <circle cx="123.5" cy="736.8" r="1.0" fill="#ece7e2" opacity="0.045"/>
    <circle cx="451.5" cy="1159.5" r="0.8" fill="#ece7e2" opacity="0.055"/>
    <circle cx="879.3" cy="765.2" r="0.8" fill="#ece7e2" opacity="0.058"/>
    <circle cx="478.5" cy="177.7" r="1.0" fill="#ece7e2" opacity="0.048"/>
    <circle cx="804.7" cy="404.2" r="1.4" fill="#ece7e2" opacity="0.088"/>
    <circle cx="923.1" cy="470.1" r="1.3" fill="#ece7e2" opacity="0.049"/>
    <circle cx="398.3" cy="610.0" r="1.5" fill="#ece7e2" opacity="0.086"/>
    <circle cx="290.8" cy="7.7" r="1.1" fill="#ece7e2" opacity="0.033"/>
    <circle cx="30.1" cy="967.0" r="0.6" fill="#ece7e2" opacity="0.073"/>
    <circle cx="362.0" cy="1173.1" r="1.6" fill="#ece7e2" opacity="0.034"/>
    <circle cx="192.6" cy="1184.2" r="1.3" fill="#ece7e2" opacity="0.055"/>
    <circle cx="782.3" cy="1016.9" r="1.1" fill="#ece7e2" opacity="0.058"/>
    <circle cx="100.2" cy="452.5" r="0.7" fill="#ece7e2" opacity="0.068"/>
    <circle cx="606.6" cy="180.3" r="1.3" fill="#ece7e2" opacity="0.036"/>
    <circle cx="105.4" cy="807.0" r="1.1" fill="#ece7e2" opacity="0.084"/>
    <circle cx="629.2" cy="876.7" r="0.7" fill="#ece7e2" opacity="0.080"/>
    <circle cx="83.5" cy="772.7" r="1.7" fill="#ece7e2" opacity="0.084"/>
    <circle cx="893.3" cy="565.0" r="1.4" fill="#ece7e2" opacity="0.077"/>
    <circle cx="137.1" cy="1179.3" r="1.7" fill="#ece7e2" opacity="0.056"/>
    <circle cx="778.5" cy="558.8" r="0.9" fill="#ece7e2" opacity="0.073"/>
    <circle cx="63.7" cy="1000.2" r="1.8" fill="#ece7e2" opacity="0.047"/>
    <circle cx="939.7" cy="104.6" r="1.6" fill="#ece7e2" opacity="0.047"/>
    <circle cx="966.2" cy="538.4" r="1.7" fill="#ece7e2" opacity="0.032"/>
    <circle cx="85.6" cy="1020.5" r="1.3" fill="#ece7e2" opacity="0.062"/>
    <circle cx="32.7" cy="216.6" r="1.0" fill="#ece7e2" opacity="0.033"/>
    <circle cx="993.0" cy="956.5" r="1.7" fill="#ece7e2" opacity="0.072"/>
    <circle cx="343.5" cy="97.0" r="1.5" fill="#ece7e2" opacity="0.037"/>
    <circle cx="547.1" cy="580.1" r="1.1" fill="#ece7e2" opacity="0.035"/>
    <circle cx="74.0" cy="650.3" r="0.5" fill="#ece7e2" opacity="0.062"/>
    <circle cx="150.3" cy="352.1" r="0.7" fill="#ece7e2" opacity="0.064"/>
    <circle cx="388.3" cy="278.9" r="0.8" fill="#ece7e2" opacity="0.064"/>
    <circle cx="910.6" cy="523.9" r="0.7" fill="#ece7e2" opacity="0.049"/>
    <circle cx="240.3" cy="715.5" r="1.5" fill="#ece7e2" opacity="0.064"/>
    <circle cx="188.1" cy="406.6" r="1.0" fill="#ece7e2" opacity="0.056"/>
    <circle cx="397.5" cy="1246.9" r="1.2" fill="#ece7e2" opacity="0.070"/>
    <circle cx="716.4" cy="806.4" r="1.5" fill="#ece7e2" opacity="0.052"/>
  <line x1="430.0" y1="633.0" x2="570.0" y2="633.0" stroke="#a11c1c" stroke-width="1.5" opacity="0.8"/>
  <text x="500.0" y="611.0" text-anchor="middle" font-family="Georgia, 'Times New Roman', serif" font-size="52" letter-spacing="4" fill="#ece7e2" opacity="0.85">VERBRANNTE BRIEFE</text>
  <text x="500.0" y="659.0" text-anchor="middle" font-family="Georgia, serif" font-size="26" letter-spacing="2" fill="#948d89">Digitale Mischtechnik</text>
  <text x="500.0" y="1222" text-anchor="middle" font-family="Georgia, serif" font-size="20" letter-spacing="1.5" fill="#948d89" opacity="0.6">PLATZHALTER — BILD ERSETZEN</text>
</svg>