<svg xmlns="http://www.w3.org/2000/svg" viewBox="0 0 1000 1250" width="1000" height="1250" role="img" aria-label="Platzhalterbild: ROTER FADEN">
  <defs>
    <linearGradient id="bg-8" x1="0%" y1="0%" x2="100%" y2="100%">
      <stop offset="0%" stop-color="#14100f"/>
      <stop offset="55%" stop-color="#0a0908"/>
      <stop offset="100%" stop-color="#1a0d0d"/>
    </linearGradient>
    <radialGradient id="glow-8" cx="50%" cy="42%" r="60%">
      <stop offset="0%" stop-color="#a11c1c" stop-opacity="0.16"/>
      <stop offset="100%" stop-color="#a11c1c" stop-opacity="0"/>
    </radialGradient>
  </defs>
  <rect width="1000" height="1250" fill="url(#bg-8)"/>
  <rect width="1000" height="1250" fill="url(#glow-8)"/>
  <circle cx="226.7" cy="1202.9" r="0.7" fill="#ece7e2" opacity="0.072"/>
    <circle cx="85.2" cy="309.3" r="1.8" fill="#ece7e2" opacity="0.043"/>
    <circle cx="641.9" cy="573.9" r="1.1" fill="#ece7e2" opacity="0.060"/>
    <circle cx="192.2" cy="1038.2" r="0.6" fill="#ece7e2" opacity="0.044"/>
    <circle cx="20.0" cy="333.5" r="1.0" fill="#ece7e2" opacity="0.084"/>
    <circle cx="379.1" cy="142.2" r="0.8" fill="#ece7e2" opacity="0.089"/>
    <circle cx="63.1" cy="775.2" r="1.0" fill="#ece7e2" opacity="0.070"/>
    <circle cx="338.4" cy="864.1" r="1.1" fill="#ece7e2" opacity="0.069"/>
    <circle cx="901.4" cy="726.9" r="0.7" fill="#ece7e2" opacity="0.034"/>
    <circle cx="946.1" cy="610.8" r="0.8" fill="#ece7e2" opacity="0.087"/>
    <circle cx="579.0" cy="911.2" r="1.6" fill="#ece7e2" opacity="0.047"/>
    <circle cx="356.7" cy="1097.6" r="0.7" fill="#ece7e2" opacity="0.076"/>
    <circle cx="97.6" cy="862.7" r="1.4" fill="#ece7e2" opacity="0.087"/>
    <circle cx="843.5" cy="629.5" r="0.8" fill="#ece7e2" opacity="0.039"/>
    <circle cx="528.7" cy="637.2" r="0.6" fill="#ece7e2" opacity="0.084"/>
    <circle cx="507.4" cy="876.6" r="0.8" fill="#ece7e2" opacity="0.045"/>
    <circle cx="11.9" cy="429.0" r="0.8" fill="#ece7e2" opacity="0.055"/>
    <circle cx="376.9" cy="1042.9" r="1.7" fill="#ece7e2" opacity="0.041"/>
    <circle cx="396.3" cy="207.7" r="1.4" fill="#ece7e2" opacity="0.088"/>
    <circle cx="201.8" cy="958.1" r="0.9" fill="#ece7e2" opacity="0.031"/>
    <circle cx="764.3" cy="427.3" r="0.7" fill="#ece7e2" opacity="0.056"/>
    <circle cx="231.7" cy="512.6" r="1.1" fill="#ece7e2" opacity="0.055"/>
    <circle cx="588.5" cy="360.9" r="0.6" fill="#ece7e2" opacity="0.035"/>
    <circle cx="106.5" cy="651.2" r="1.0" fill="#ece7e2" opacity="0.078"/>
    <circle cx="504.9" cy="885.2" r="1.8" fill="#ece7e2" opacity="0.034"/>
    <circle cx="16.9" cy="175.5" r="1.0" fill="#ece7e2" opacity="0.064"/>
    <circle cx="743.8" cy="439.3" r="1.8" fill="#ece7e2" opacity="0.030"/>
    <circle cx="835.7" cy="262.6" r="1.6" fill="#ece7e2" opacity="0.032"/>
    <circle cx="965.2" cy="949.2" r="1.8" fill="#ece7e2" opacity="0.065"/>
    <circle cx="177.8" cy="1212.3" r="1.1" fill="#ece7e2" opacity="0.035"/>
    <circle cx="605.4" cy="621.5" r="1.1" fill="#ece7e2" opacity="0.039"/>
    <circle cx="122.0" cy="725.9" r="1.1" fill="#ece7e2" opacity="0.038"/>
    <circle cx="439.5" cy="906.9" r="1.4" fill="#ece7e2" opacity="0.058"/>
    <circle cx="393.8" cy="451.0" r="0.8" fill="#ece7e2" opacity="0.042"/>
    <circle cx="446.2" cy="135.2" r="1.4" fill="#ece7e2" opacity="0.072"/>
    <circle cx="611.5" cy="28.3" r="1.0" fill="#ece7e2" opacity="0.056"/>
    <circle cx="93.3" cy="1209.7" r="1.5" fill="#ece7e2" opacity="0.060"/>
    <circle cx="705.2" cy="250.8" r="0.8" fill="#ece7e2" opacity="0.062"/>
    <circle cx="744.0" cy="809.1" r="0.5" fill="#ece7e2" opacity="0.067"/>
    <circle cx="908.9" cy="929.1" r="1.7" fill="#ece7e2" opacity="0.089"/>
    <circle cx="223.7" cy="370.5" r="1.2" fill="#ece7e2" opacity="0.089"/>
    <circle cx="369.3" cy="1176.8" r="1.6" fill="#ece7e2" opacity="0.061"/>
    <circle cx="625.1" cy="1196.3" r="1.5" fill="#ece7e2" opacity="0.048"/>
    <circle cx="845.7" cy="244.7" r="1.0" fill="#ece7e2" opacity="0.088"/>
    <circle cx="847.1" cy="390.0" r="0.9" fill="#ece7e2" opacity="0.067"/>
    <circle cx="842.6" cy="855.4" r="1.7" fill="#ece7e2" opacity="0.074"/>
    <circle cx="820.9" cy="756.2" r="1.0" fill="#ece7e2" opacity="0.056"/>
    <circle cx="489.9" cy="661.2" r="1.6" fill="#ece7e2" opacity="0.046"/>
    <circle cx="68.6" cy="916.4" r="0.9" fill="#ece7e2" opacity="0.055"/>
    <circle cx="117.0" cy="1036.7" r="0.9" fill="#ece7e2" opacity="0.047"/>
    <circle cx="804.2" cy="630.3" r="0.9" fill="#ece7e2" opacity="0.083"/>
    <circle cx="411.8" cy="451.7" r="1.8" fill="#ece7e2" opacity="0.077"/>
    <circle cx="747.4" cy="312.4" r="1.6" fill="#ece7e2" opacity="0.066"/>
    <circle cx="829.7" cy="459.9" r="1.5" fill="#ece7e2" opacity="0.078"/>
    <circle cx="387.9" cy="818.4" r="1.5" fill="#ece7e2" opacity="0.090"/>
    <circle cx="920.5" cy="982.8" r="0.7" fill="#ece7e2" opacity="0.067"/>
    <circle cx="685.0" cy="108.8" r="1.1" fill="#ece7e2" opacity="0.082"/>
    <circle cx="905.4" cy="1156.6" r="0.6" fill="#ece7e2" opacity="0.066"/>
    <circle cx="865.0" cy="815.9" r="0.9" fill="#ece7e2" opacity="0.032"/>
    <circle cx="919.8" cy="1073.8" r="1.3" fill="#ece7e2" opacity="0.052"/>
  <line x1="430.0" y1="633.0" x2="570.0" y2="633.0" stroke="#a11c1c" stroke-width="1.5" opacity="0.8"/>
  <text x="500.0" y="611.0" text-anchor="middle" font-family="Georgia, 'Times New Roman', serif" font-size="52" letter-spacing="4" fill="#ece7e2" opacity="0.85">ROTER FADEN</text>
  <text x="500.0" y="659.0" text-anchor="middle" font-family="Georgia, serif" font-size="26" letter-spacing="2" fill="#948d89">Mischtechnik</text>
  <text x="500.0" y="1222" text-anchor="middle" font-family="Georgia, serif" font-size="20" letter-spacing="1.5" fill="#948d89" opacity="0.6">PLATZHALTER — BILD ERSETZEN</text>
</svg>