<svg xmlns="http://www.w3.org/2000/svg" viewBox="0 0 1000 1250" width="1000" height="1250" role="img" aria-label="Platzhalterbild: DORNKRONE">
  <defs>
    <linearGradient id="bg-4" x1="0%" y1="0%" x2="100%" y2="100%">
      <stop offset="0%" stop-color="#14100f"/>
      <stop offset="55%" stop-color="#0a0908"/>
      <stop offset="100%" stop-color="#1a0d0d"/>
    </linearGradient>
    <radialGradient id="glow-4" cx="50%" cy="42%" r="60%">
      <stop offset="0%" stop-color="#a11c1c" stop-opacity="0.16"/>
      <stop offset="100%" stop-color="#a11c1c" stop-opacity="0"/>
    </radialGradient>
  </defs>
  <rect width="1000" height="1250" fill="url(#bg-4)"/>
  <rect width="1000" height="1250" fill="url(#glow-4)"/>
  <circle cx="236.0" cy="129.0" r="1.0" fill="#ece7e2" opacity="0.039"/>
    <circle cx="66.5" cy="502.0" r="1.7" fill="#ece7e2" opacity="0.078"/>
    <circle cx="765.2" cy="277.4" r="1.2" fill="#ece7e2" opacity="0.047"/>
    <circle cx="172.7" cy="132.7" r="0.8" fill="#ece7e2" opacity="0.086"/>
    <circle cx="828.9" cy="1008.3" r="1.5" fill="#ece7e2" opacity="0.042"/>
    <circle cx="309.8" cy="783.7" r="1.5" fill="#ece7e2" opacity="0.081"/>
    <circle cx="880.1" cy="108.4" r="1.3" fill="#ece7e2" opacity="0.070"/>
    <circle cx="506.0" cy="222.2" r="1.1" fill="#ece7e2" opacity="0.035"/>
    <circle cx="934.6" cy="1081.9" r="1.2" fill="#ece7e2" opacity="0.048"/>
    <circle cx="908.9" cy="715.5" r="1.6" fill="#ece7e2" opacity="0.081"/>
    <circle cx="508.4" cy="517.4" r="1.3" fill="#ece7e2" opacity="0.056"/>
    <circle cx="161.3" cy="381.4" r="1.6" fill="#ece7e2" opacity="0.033"/>
    <circle cx="46.3" cy="782.9" r="0.9" fill="#ece7e2" opacity="0.062"/>
    <circle cx="471.2" cy="428.6" r="1.8" fill="#ece7e2" opacity="0.042"/>
    <circle cx="412.8" cy="253.3" r="1.3" fill="#ece7e2" opacity="0.047"/>
    <circle cx="355.8" cy="933.7" r="0.9" fill="#ece7e2" opacity="0.064"/>
    <circle cx="904.3" cy="126.2" r="0.6" fill="#ece7e2" opacity="0.044"/>
    <circle cx="765.2" cy="769.3" r="0.8" fill="#ece7e2" opacity="0.050"/>
    <circle cx="177.5" cy="573.8" r="0.6" fill="#ece7e2" opacity="0.072"/>
    <circle cx="895.9" cy="1193.4" r="1.5" fill="#ece7e2" opacity="0.088"/>
    <circle cx="18.2" cy="361.2" r="1.8" fill="#ece7e2" opacity="0.077"/>
    <circle cx="410.4" cy="1179.1" r="1.3" fill="#ece7e2" opacity="0.079"/>
    <circle cx="293.4" cy="239.3" r="1.1" fill="#ece7e2" opacity="0.038"/>
    <circle cx="381.6" cy="1202.3" r="0.9" fill="#ece7e2" opacity="0.031"/>
    <circle cx="44.8" cy="212.0" r="1.5" fill="#ece7e2" opacity="0.052"/>
    <circle cx="290.3" cy="121.4" r="1.8" fill="#ece7e2" opacity="0.055"/>
    <circle cx="207.9" cy="74.2" r="0.6" fill="#ece7e2" opacity="0.040"/>
    <circle cx="676.8" cy="187.1" r="0.6" fill="#ece7e2" opacity="0.059"/>
    <circle cx="249.1" cy="1247.0" r="0.7" fill="#ece7e2" opacity="0.062"/>
    <circle cx="773.8" cy="511.7" r="1.8" fill="#ece7e2" opacity="0.059"/>
    <circle cx="241.9" cy="513.3" r="0.5" fill="#ece7e2" opacity="0.055"/>
    <circle cx="248.6" cy="1111.6" r="1.6" fill="#ece7e2" opacity="0.060"/>
    <circle cx="31.7" cy="318.0" r="0.8" fill="#ece7e2" opacity="0.042"/>
    <circle cx="231.5" cy="1087.1" r="0.7" fill="#ece7e2" opacity="0.033"/>
    <circle cx="928.0" cy="706.7" r="1.8" fill="#ece7e2" opacity="0.054"/>
    <circle cx="901.0" cy="817.5" r="1.5" fill="#ece7e2" opacity="0.075"/>
    <circle cx="494.3" cy="116.1" r="0.8" fill="#ece7e2" opacity="0.082"/>
    <circle cx="899.8" cy="1155.7" r="0.9" fill="#ece7e2" opacity="0.069"/>
    <circle cx="799.5" cy="803.1" r="1.6" fill="#ece7e2" opacity="0.062"/>
    <circle cx="654.7" cy="857.4" r="0.8" fill="#ece7e2" opacity="0.085"/>
    <circle cx="956.3" cy="93.0" r="1.8" fill="#ece7e2" opacity="0.088"/>
    <circle cx="668.4" cy="55.7" r="1.7" fill="#ece7e2" opacity="0.038"/>
    <circle cx="968.5" cy="834.0" r="0.6" fill="#ece7e2" opacity="0.040"/>
    <circle cx="635.2" cy="711.5" r="1.5" fill="#ece7e2" opacity="0.086"/>
    <circle cx="218.5" cy="4.1" r="1.7" fill="#ece7e2" opacity="0.031"/>
    <circle cx="876.4" cy="144.9" r="1.6" fill="#ece7e2" opacity="0.077"/>
    <circle cx="877.9" cy="688.3" r="1.6" fill="#ece7e2" opacity="0.042"/>
    <circle cx="671.5" cy="413.3" r="1.7" fill="#ece7e2" opacity="0.076"/>
    <circle cx="471.5" cy="658.0" r="0.5" fill="#ece7e2" opacity="0.032"/>
    <circle cx="594.5" cy="611.0" r="1.6" fill="#ece7e2" opacity="0.066"/>
    <circle cx="138.8" cy="453.2" r="1.5" fill="#ece7e2" opacity="0.061"/>
    <circle cx="10.6" cy="1047.1" r="1.6" fill="#ece7e2" opacity="0.035"/>
    <circle cx="543.4" cy="476.4" r="1.5" fill="#ece7e2" opacity="0.049"/>
    <circle cx="233.7" cy="608.3" r="1.8" fill="#ece7e2" opacity="0.036"/>
    <circle cx="114.5" cy="776.2" r="1.7" fill="#ece7e2" opacity="0.061"/>
    <circle cx="434.0" cy="1072.3" r="1.5" fill="#ece7e2" opacity="0.034"/>
    <circle cx="881.3" cy="244.8" r="0.9" fill="#ece7e2" opacity="0.080"/>
    <circle cx="422.5" cy="997.9" r="0.7" fill="#ece7e2" opacity="0.082"/>
    <circle cx="176.4" cy="186.6" r="1.1" fill="#ece7e2" opacity="0.050"/>
    <circle cx="541.9" cy="1130.1" r="1.4" fill="#ece7e2" opacity="0.030"/>
  <line x1="430.0" y1="633.0" x2="570.0" y2="633.0" stroke="#a11c1c" stroke-width="1.5" opacity="0.8"/>
  <text x="500.0" y="611.0" text-anchor="middle" font-family="Georgia, 'Times New Roman', serif" font-size="52" letter-spacing="4" fill="#ece7e2" opacity="0.85">DORNKRONE</text>
  <text x="500.0" y="659.0" text-anchor="middle" font-family="Georgia, serif" font-size="26" letter-spacing="2" fill="#948d89">Öl auf Leinwand</text>
  <text x="500.0" y="1222" text-anchor="middle" font-family="Georgia, serif" font-size="20" letter-spacing="1.5" fill="#948d89" opacity="0.6">PLATZHALTER — BILD ERSETZEN</text>
</svg>