<svg xmlns="http://www.w3.org/2000/svg" viewBox="0 0 1000 1250" width="1000" height="1250" role="img" aria-label="Platzhalterbild: ASCHEBLUME">
  <defs>
    <linearGradient id="bg-3" x1="0%" y1="0%" x2="100%" y2="100%">
      <stop offset="0%" stop-color="#14100f"/>
      <stop offset="55%" stop-color="#0a0908"/>
      <stop offset="100%" stop-color="#1a0d0d"/>
    </linearGradient>
    <radialGradient id="glow-3" cx="50%" cy="42%" r="60%">
      <stop offset="0%" stop-color="#a11c1c" stop-opacity="0.16"/>
      <stop offset="100%" stop-color="#a11c1c" stop-opacity="0"/>
    </radialGradient>
  </defs>
  <rect width="1000" height="1250" fill="url(#bg-3)"/>
  <rect width="1000" height="1250" fill="url(#glow-3)"/>
  <circle cx="238.0" cy="680.3" r="1.0" fill="#ece7e2" opacity="0.066"/>
    <circle cx="625.7" cy="81.9" r="0.5" fill="#ece7e2" opacity="0.080"/>
    <circle cx="259.4" cy="292.9" r="1.8" fill="#ece7e2" opacity="0.058"/>
    <circle cx="836.5" cy="595.4" r="1.3" fill="#ece7e2" opacity="0.039"/>
    <circle cx="634.9" cy="1085.1" r="1.2" fill="#ece7e2" opacity="0.074"/>
    <circle cx="671.4" cy="80.0" r="1.5" fill="#ece7e2" opacity="0.065"/>
    <circle cx="301.3" cy="38.8" r="1.6" fill="#ece7e2" opacity="0.058"/>
    <circle cx="718.8" cy="1098.5" r="1.4" fill="#ece7e2" opacity="0.085"/>
    <circle cx="395.0" cy="1001.1" r="1.1" fill="#ece7e2" opacity="0.086"/>
    <circle cx="878.9" cy="121.8" r="0.7" fill="#ece7e2" opacity="0.043"/>
    <circle cx="965.5" cy="545.2" r="1.3" fill="#ece7e2" opacity="0.048"/>
    <circle cx="507.2" cy="482.3" r="1.0" fill="#ece7e2" opacity="0.065"/>
    <circle cx="584.3" cy="1130.3" r="1.4" fill="#ece7e2" opacity="0.086"/>
    <circle cx="856.4" cy="1238.7" r="1.4" fill="#ece7e2" opacity="0.040"/>
    <circle cx="860.6" cy="1205.8" r="1.7" fill="#ece7e2" opacity="0.064"/>
    <circle cx="713.8" cy="263.9" r="1.6" fill="#ece7e2" opacity="0.064"/>
    <circle cx="285.0" cy="79.3" r="1.6" fill="#ece7e2" opacity="0.089"/>
    <circle cx="88.5" cy="1000.7" r="1.0" fill="#ece7e2" opacity="0.039"/>
    <circle cx="293.9" cy="961.0" r="1.6" fill="#ece7e2" opacity="0.033"/>
    <circle cx="614.5" cy="56.2" r="1.4" fill="#ece7e2" opacity="0.050"/>
    <circle cx="880.9" cy="1225.8" r="1.2" fill="#ece7e2" opacity="0.090"/>
    <circle cx="309.7" cy="96.2" r="1.3" fill="#ece7e2" opacity="0.032"/>
    <circle cx="197.4" cy="509.9" r="1.3" fill="#ece7e2" opacity="0.039"/>
    <circle cx="42.4" cy="1084.7" r="0.9" fill="#ece7e2" opacity="0.088"/>
    <circle cx="896.7" cy="472.2" r="1.1" fill="#ece7e2" opacity="0.061"/>
    <circle cx="643.9" cy="744.6" r="1.2" fill="#ece7e2" opacity="0.067"/>
    <circle cx="940.6" cy="633.8" r="1.1" fill="#ece7e2" opacity="0.073"/>
    <circle cx="237.6" cy="376.4" r="1.8" fill="#ece7e2" opacity="0.061"/>
    <circle cx="548.4" cy="14.3" r="1.0" fill="#ece7e2" opacity="0.065"/>
    <circle cx="20.1" cy="769.7" r="1.3" fill="#ece7e2" opacity="0.034"/>
    <circle cx="627.3" cy="582.8" r="1.4" fill="#ece7e2" opacity="0.051"/>
    <circle cx="707.0" cy="922.5" r="0.5" fill="#ece7e2" opacity="0.034"/>
    <circle cx="676.0" cy="1204.1" r="0.8" fill="#ece7e2" opacity="0.057"/>
    <circle cx="592.7" cy="400.0" r="1.0" fill="#ece7e2" opacity="0.049"/>
    <circle cx="369.2" cy="744.5" r="0.9" fill="#ece7e2" opacity="0.053"/>
    <circle cx="772.3" cy="33.7" r="1.2" fill="#ece7e2" opacity="0.074"/>
    <circle cx="310.0" cy="278.2" r="1.5" fill="#ece7e2" opacity="0.044"/>
    <circle cx="187.4" cy="544.0" r="1.4" fill="#ece7e2" opacity="0.036"/>
    <circle cx="322.0" cy="417.2" r="1.6" fill="#ece7e2" opacity="0.056"/>
    <circle cx="855.5" cy="211.6" r="0.9" fill="#ece7e2" opacity="0.069"/>
    <circle cx="884.9" cy="563.9" r="0.8" fill="#ece7e2" opacity="0.037"/>
    <circle cx="529.6" cy="238.5" r="1.5" fill="#ece7e2" opacity="0.080"/>
    <circle cx="183.6" cy="348.2" r="1.5" fill="#ece7e2" opacity="0.069"/>
    <circle cx="806.3" cy="431.6" r="0.7" fill="#ece7e2" opacity="0.048"/>
    <circle cx="793.9" cy="339.0" r="1.0" fill="#ece7e2" opacity="0.055"/>
    <circle cx="419.8" cy="511.9" r="1.7" fill="#ece7e2" opacity="0.039"/>
    <circle cx="4.7" cy="1179.1" r="1.6" fill="#ece7e2" opacity="0.089"/>
    <circle cx="434.4" cy="1187.7" r="1.7" fill="#ece7e2" opacity="0.043"/>
    <circle cx="745.5" cy="1045.9" r="1.4" fill="#ece7e2" opacity="0.061"/>
    <circle cx="289.0" cy="426.3" r="0.8" fill="#ece7e2" opacity="0.034"/>
    <circle cx="588.7" cy="358.8" r="1.6" fill="#ece7e2" opacity="0.033"/>
    <circle cx="903.6" cy="867.1" r="1.7" fill="#ece7e2" opacity="0.084"/>
    <circle cx="899.7" cy="721.2" r="0.5" fill="#ece7e2" opacity="0.075"/>
    <circle cx="171.8" cy="374.9" r="1.4" fill="#ece7e2" opacity="0.061"/>
    <circle cx="413.8" cy="1173.8" r="1.3" fill="#ece7e2" opacity="0.050"/>
    <circle cx="252.5" cy="1077.1" r="1.1" fill="#ece7e2" opacity="0.077"/>
    <circle cx="351.8" cy="246.7" r="1.2" fill="#ece7e2" opacity="0.079"/>
    <circle cx="171.3" cy="989.6" r="1.7" fill="#ece7e2" opacity="0.078"/>
    <circle cx="823.5" cy="9.4" r="1.3" fill="#ece7e2" opacity="0.082"/>
    <circle cx="49.9" cy="339.2" r="0.8" fill="#ece7e2" opacity="0.062"/>
  <line x1="430.0" y1="633.0" x2="570.0" y2="633.0" stroke="#a11c1c" stroke-width="1.5" opacity="0.8"/>
  <text x="500.0" y="611.0" text-anchor="middle" font-family="Georgia, 'Times New Roman', serif" font-size="52" letter-spacing="4" fill="#ece7e2" opacity="0.85">ASCHEBLUME</text>
  <text x="500.0" y="659.0" text-anchor="middle" font-family="Georgia, serif" font-size="26" letter-spacing="2" fill="#948d89">Mischtechnik</text>
  <text x="500.0" y="1222" text-anchor="middle" font-family="Georgia, serif" font-size="20" letter-spacing="1.5" fill="#948d89" opacity="0.6">PLATZHALTER — BILD ERSETZEN</text>
</svg>