<svg xmlns="http://www.w3.org/2000/svg" viewBox="0 0 1250 1000" width="1250" height="1000" role="img" aria-label="Platzhalterbild: SCHWELLE">
  <defs>
    <linearGradient id="bg-2" x1="0%" y1="0%" x2="100%" y2="100%">
      <stop offset="0%" stop-color="#14100f"/>
      <stop offset="55%" stop-color="#0a0908"/>
      <stop offset="100%" stop-color="#1a0d0d"/>
    </linearGradient>
    <radialGradient id="glow-2" cx="50%" cy="42%" r="60%">
      <stop offset="0%" stop-color="#a11c1c" stop-opacity="0.16"/>
      <stop offset="100%" stop-color="#a11c1c" stop-opacity="0"/>
    </radialGradient>
  </defs>
  <rect width="1250" height="1000" fill="url(#bg-2)"/>
  <rect width="1250" height="1000" fill="url(#glow-2)"/>
  <circle cx="1195.0" cy="947.8" r="0.6" fill="#ece7e2" opacity="0.035"/>
    <circle cx="1044.4" cy="736.0" r="1.4" fill="#ece7e2" opacity="0.048"/>
    <circle cx="757.4" cy="606.8" r="1.3" fill="#ece7e2" opacity="0.040"/>
    <circle cx="538.3" cy="393.5" r="1.4" fill="#ece7e2" opacity="0.090"/>
    <circle cx="1186.7" cy="544.2" r="1.1" fill="#ece7e2" opacity="0.046"/>
    <circle cx="44.9" cy="27.4" r="1.1" fill="#ece7e2" opacity="0.049"/>
    <circle cx="475.0" cy="891.8" r="1.2" fill="#ece7e2" opacity="0.064"/>
    <circle cx="295.2" cy="23.9" r="0.9" fill="#ece7e2" opacity="0.038"/>
    <circle cx="637.8" cy="998.7" r="1.4" fill="#ece7e2" opacity="0.041"/>
    <circle cx="1117.0" cy="796.8" r="1.5" fill="#ece7e2" opacity="0.084"/>
    <circle cx="953.6" cy="789.7" r="1.0" fill="#ece7e2" opacity="0.089"/>
    <circle cx="1202.4" cy="161.2" r="1.5" fill="#ece7e2" opacity="0.073"/>
    <circle cx="576.8" cy="530.4" r="1.1" fill="#ece7e2" opacity="0.085"/>
    <circle cx="626.1" cy="831.5" r="1.0" fill="#ece7e2" opacity="0.083"/>
    <circle cx="1124.6" cy="461.0" r="1.2" fill="#ece7e2" opacity="0.085"/>
    <circle cx="904.7" cy="486.6" r="0.8" fill="#ece7e2" opacity="0.049"/>
    <circle cx="874.5" cy="166.1" r="1.7" fill="#ece7e2" opacity="0.046"/>
    <circle cx="1139.2" cy="309.6" r="1.7" fill="#ece7e2" opacity="0.072"/>
    <circle cx="630.3" cy="517.7" r="1.3" fill="#ece7e2" opacity="0.065"/>
    <circle cx="389.8" cy="207.8" r="1.2" fill="#ece7e2" opacity="0.086"/>
    <circle cx="779.1" cy="75.4" r="1.6" fill="#ece7e2" opacity="0.074"/>
    <circle cx="1134.6" cy="191.4" r="1.5" fill="#ece7e2" opacity="0.034"/>
    <circle cx="816.1" cy="273.1" r="0.8" fill="#ece7e2" opacity="0.083"/>
    <circle cx="132.8" cy="522.4" r="1.6" fill="#ece7e2" opacity="0.045"/>
    <circle cx="263.1" cy="880.6" r="1.0" fill="#ece7e2" opacity="0.073"/>
    <circle cx="39.8" cy="362.4" r="0.7" fill="#ece7e2" opacity="0.070"/>
    <circle cx="103.6" cy="954.6" r="0.5" fill="#ece7e2" opacity="0.074"/>
    <circle cx="26.4" cy="255.7" r="1.6" fill="#ece7e2" opacity="0.039"/>
    <circle cx="229.7" cy="691.5" r="1.0" fill="#ece7e2" opacity="0.033"/>
    <circle cx="1237.5" cy="151.4" r="0.5" fill="#ece7e2" opacity="0.051"/>
    <circle cx="769.0" cy="742.5" r="0.6" fill="#ece7e2" opacity="0.050"/>
    <circle cx="38.5" cy="448.7" r="1.5" fill="#ece7e2" opacity="0.074"/>
    <circle cx="1127.5" cy="755.7" r="1.6" fill="#ece7e2" opacity="0.072"/>
    <circle cx="591.0" cy="225.5" r="1.4" fill="#ece7e2" opacity="0.049"/>
    <circle cx="127.6" cy="447.8" r="1.6" fill="#ece7e2" opacity="0.038"/>
    <circle cx="731.2" cy="393.0" r="1.2" fill="#ece7e2" opacity="0.039"/>
    <circle cx="1199.7" cy="259.1" r="1.3" fill="#ece7e2" opacity="0.055"/>
    <circle cx="22.5" cy="558.0" r="0.7" fill="#ece7e2" opacity="0.033"/>
    <circle cx="41.9" cy="161.2" r="0.6" fill="#ece7e2" opacity="0.068"/>
    <circle cx="635.3" cy="983.5" r="1.7" fill="#ece7e2" opacity="0.090"/>
    <circle cx="290.6" cy="444.7" r="0.8" fill="#ece7e2" opacity="0.065"/>
    <circle cx="780.2" cy="800.2" r="1.4" fill="#ece7e2" opacity="0.045"/>
    <circle cx="528.8" cy="526.2" r="0.5" fill="#ece7e2" opacity="0.032"/>
    <circle cx="510.9" cy="111.2" r="1.4" fill="#ece7e2" opacity="0.044"/>
    <circle cx="124.7" cy="181.8" r="0.8" fill="#ece7e2" opacity="0.043"/>
    <circle cx="650.9" cy="464.4" r="0.9" fill="#ece7e2" opacity="0.069"/>
    <circle cx="265.6" cy="906.6" r="1.8" fill="#ece7e2" opacity="0.074"/>
    <circle cx="542.2" cy="511.5" r="1.3" fill="#ece7e2" opacity="0.033"/>
    <circle cx="522.5" cy="525.1" r="0.7" fill="#ece7e2" opacity="0.036"/>
    <circle cx="1003.3" cy="366.2" r="1.2" fill="#ece7e2" opacity="0.085"/>
    <circle cx="763.1" cy="289.6" r="1.8" fill="#ece7e2" opacity="0.052"/>
    <circle cx="23.8" cy="685.3" r="0.6" fill="#ece7e2" opacity="0.048"/>
    <circle cx="1050.8" cy="672.6" r="0.5" fill="#ece7e2" opacity="0.057"/>
    <circle cx="513.3" cy="485.9" r="0.8" fill="#ece7e2" opacity="0.065"/>
    <circle cx="92.2" cy="284.4" r="1.0" fill="#ece7e2" opacity="0.086"/>
    <circle cx="95.7" cy="755.0" r="0.8" fill="#ece7e2" opacity="0.064"/>
    <circle cx="489.7" cy="463.2" r="1.5" fill="#ece7e2" opacity="0.054"/>
    <circle cx="152.2" cy="121.8" r="0.6" fill="#ece7e2" opacity="0.081"/>
    <circle cx="801.2" cy="959.7" r="1.4" fill="#ece7e2" opacity="0.031"/>
    <circle cx="823.9" cy="777.2" r="1.4" fill="#ece7e2" opacity="0.060"/>
  <line x1="555.0" y1="508.0" x2="695.0" y2="508.0" stroke="#a11c1c" stroke-width="1.5" opacity="0.8"/>
  <text x="625.0" y="486.0" text-anchor="middle" font-family="Georgia, 'Times New Roman', serif" font-size="52" letter-spacing="4" fill="#ece7e2" opacity="0.85">SCHWELLE</text>
  <text x="625.0" y="534.0" text-anchor="middle" font-family="Georgia, serif" font-size="26" letter-spacing="2" fill="#948d89">Tusche auf Papier</text>
  <text x="625.0" y="972" text-anchor="middle" font-family="Georgia, serif" font-size="20" letter-spacing="1.5" fill="#948d89" opacity="0.6">PLATZHALTER — BILD ERSETZEN</text>
</svg>