<svg xmlns="http://www.w3.org/2000/svg" viewBox="0 0 1250 1000" width="1250" height="1000" role="img" aria-label="Platzhalterbild: NACHTFALTER">
  <defs>
    <linearGradient id="bg-7" x1="0%" y1="0%" x2="100%" y2="100%">
      <stop offset="0%" stop-color="#14100f"/>
      <stop offset="55%" stop-color="#0a0908"/>
      <stop offset="100%" stop-color="#1a0d0d"/>
    </linearGradient>
    <radialGradient id="glow-7" cx="50%" cy="42%" r="60%">
      <stop offset="0%" stop-color="#a11c1c" stop-opacity="0.16"/>
      <stop offset="100%" stop-color="#a11c1c" stop-opacity="0"/>
    </radialGradient>
  </defs>
  <rect width="1250" height="1000" fill="url(#bg-7)"/>
  <rect width="1250" height="1000" fill="url(#glow-7)"/>
  <circle cx="404.8" cy="150.8" r="1.3" fill="#ece7e2" opacity="0.034"/>
    <circle cx="669.9" cy="365.7" r="0.6" fill="#ece7e2" opacity="0.060"/>
    <circle cx="46.9" cy="433.6" r="0.6" fill="#ece7e2" opacity="0.035"/>
    <circle cx="530.6" cy="826.9" r="0.7" fill="#ece7e2" opacity="0.043"/>
    <circle cx="784.3" cy="947.7" r="1.3" fill="#ece7e2" opacity="0.054"/>
    <circle cx="1220.3" cy="46.6" r="1.6" fill="#ece7e2" opacity="0.047"/>
    <circle cx="180.3" cy="117.8" r="0.9" fill="#ece7e2" opacity="0.079"/>
    <circle cx="225.9" cy="581.6" r="1.3" fill="#ece7e2" opacity="0.052"/>
    <circle cx="684.7" cy="62.8" r="0.6" fill="#ece7e2" opacity="0.042"/>
    <circle cx="850.5" cy="427.6" r="0.9" fill="#ece7e2" opacity="0.065"/>
    <circle cx="566.5" cy="299.8" r="1.5" fill="#ece7e2" opacity="0.072"/>
    <circle cx="305.1" cy="574.4" r="1.2" fill="#ece7e2" opacity="0.083"/>
    <circle cx="911.8" cy="287.9" r="1.8" fill="#ece7e2" opacity="0.037"/>
    <circle cx="522.7" cy="757.1" r="0.7" fill="#ece7e2" opacity="0.059"/>
    <circle cx="49.0" cy="668.2" r="1.5" fill="#ece7e2" opacity="0.064"/>
    <circle cx="1094.3" cy="313.7" r="1.4" fill="#ece7e2" opacity="0.066"/>
    <circle cx="724.9" cy="456.2" r="1.6" fill="#ece7e2" opacity="0.087"/>
    <circle cx="592.6" cy="664.2" r="0.6" fill="#ece7e2" opacity="0.072"/>
    <circle cx="808.9" cy="993.1" r="1.6" fill="#ece7e2" opacity="0.047"/>
    <circle cx="482.2" cy="668.7" r="0.5" fill="#ece7e2" opacity="0.058"/>
    <circle cx="210.1" cy="117.1" r="0.6" fill="#ece7e2" opacity="0.076"/>
    <circle cx="161.7" cy="247.6" r="1.0" fill="#ece7e2" opacity="0.082"/>
    <circle cx="100.7" cy="449.2" r="1.2" fill="#ece7e2" opacity="0.083"/>
    <circle cx="1024.1" cy="864.0" r="0.9" fill="#ece7e2" opacity="0.055"/>
    <circle cx="448.5" cy="884.2" r="1.7" fill="#ece7e2" opacity="0.039"/>
    <circle cx="220.3" cy="232.0" r="0.8" fill="#ece7e2" opacity="0.059"/>
    <circle cx="736.4" cy="262.7" r="0.5" fill="#ece7e2" opacity="0.055"/>
    <circle cx="461.6" cy="566.3" r="1.7" fill="#ece7e2" opacity="0.071"/>
    <circle cx="644.4" cy="617.6" r="1.4" fill="#ece7e2" opacity="0.033"/>
    <circle cx="1124.4" cy="780.0" r="1.6" fill="#ece7e2" opacity="0.078"/>
    <circle cx="490.5" cy="399.0" r="0.6" fill="#ece7e2" opacity="0.068"/>
    <circle cx="77.8" cy="67.3" r="0.8" fill="#ece7e2" opacity="0.040"/>
    <circle cx="425.1" cy="52.6" r="0.5" fill="#ece7e2" opacity="0.039"/>
    <circle cx="126.8" cy="363.6" r="0.5" fill="#ece7e2" opacity="0.082"/>
    <circle cx="767.6" cy="148.6" r="0.8" fill="#ece7e2" opacity="0.051"/>
    <circle cx="455.2" cy="122.8" r="1.6" fill="#ece7e2" opacity="0.090"/>
    <circle cx="582.5" cy="483.8" r="0.6" fill="#ece7e2" opacity="0.036"/>
    <circle cx="428.3" cy="264.8" r="1.6" fill="#ece7e2" opacity="0.040"/>
    <circle cx="28.9" cy="951.0" r="1.2" fill="#ece7e2" opacity="0.039"/>
    <circle cx="679.0" cy="27.0" r="1.2" fill="#ece7e2" opacity="0.089"/>
    <circle cx="1079.2" cy="696.2" r="0.8" fill="#ece7e2" opacity="0.052"/>
    <circle cx="208.8" cy="771.9" r="1.2" fill="#ece7e2" opacity="0.077"/>
    <circle cx="412.1" cy="223.0" r="1.6" fill="#ece7e2" opacity="0.089"/>
    <circle cx="1065.8" cy="806.1" r="1.6" fill="#ece7e2" opacity="0.074"/>
    <circle cx="283.4" cy="517.6" r="1.0" fill="#ece7e2" opacity="0.032"/>
    <circle cx="34.9" cy="279.4" r="0.8" fill="#ece7e2" opacity="0.072"/>
    <circle cx="1195.6" cy="447.2" r="1.7" fill="#ece7e2" opacity="0.089"/>
    <circle cx="1193.8" cy="364.6" r="0.8" fill="#ece7e2" opacity="0.044"/>
    <circle cx="245.9" cy="204.4" r="1.3" fill="#ece7e2" opacity="0.084"/>
    <circle cx="1050.5" cy="479.5" r="1.3" fill="#ece7e2" opacity="0.078"/>
    <circle cx="106.0" cy="660.6" r="1.7" fill="#ece7e2" opacity="0.077"/>
    <circle cx="937.7" cy="478.0" r="0.7" fill="#ece7e2" opacity="0.077"/>
    <circle cx="415.6" cy="800.8" r="1.8" fill="#ece7e2" opacity="0.054"/>
    <circle cx="501.7" cy="946.8" r="1.4" fill="#ece7e2" opacity="0.040"/>
    <circle cx="158.8" cy="151.2" r="1.7" fill="#ece7e2" opacity="0.078"/>
    <circle cx="182.7" cy="826.5" r="1.8" fill="#ece7e2" opacity="0.069"/>
    <circle cx="438.0" cy="548.7" r="0.7" fill="#ece7e2" opacity="0.031"/>
    <circle cx="1213.6" cy="649.7" r="1.2" fill="#ece7e2" opacity="0.086"/>
    <circle cx="542.3" cy="871.7" r="1.6" fill="#ece7e2" opacity="0.043"/>
    <circle cx="314.8" cy="293.0" r="0.8" fill="#ece7e2" opacity="0.065"/>
  <line x1="555.0" y1="508.0" x2="695.0" y2="508.0" stroke="#a11c1c" stroke-width="1.5" opacity="0.8"/>
  <text x="625.0" y="486.0" text-anchor="middle" font-family="Georgia, 'Times New Roman', serif" font-size="52" letter-spacing="4" fill="#ece7e2" opacity="0.85">NACHTFALTER</text>
  <text x="625.0" y="534.0" text-anchor="middle" font-family="Georgia, serif" font-size="26" letter-spacing="2" fill="#948d89">Öl auf Leinwand</text>
  <text x="625.0" y="972" text-anchor="middle" font-family="Georgia, serif" font-size="20" letter-spacing="1.5" fill="#948d89" opacity="0.6">PLATZHALTER — BILD ERSETZEN</text>
</svg>