<svg xmlns="http://www.w3.org/2000/svg" viewBox="0 0 1000 1250" width="1000" height="1250" role="img" aria-label="Platzhalterbild: NACHTGESANG">
  <defs>
    <linearGradient id="bg-1" x1="0%" y1="0%" x2="100%" y2="100%">
      <stop offset="0%" stop-color="#14100f"/>
      <stop offset="55%" stop-color="#0a0908"/>
      <stop offset="100%" stop-color="#1a0d0d"/>
    </linearGradient>
    <radialGradient id="glow-1" cx="50%" cy="42%" r="60%">
      <stop offset="0%" stop-color="#a11c1c" stop-opacity="0.16"/>
      <stop offset="100%" stop-color="#a11c1c" stop-opacity="0"/>
    </radialGradient>
  </defs>
  <rect width="1000" height="1250" fill="url(#bg-1)"/>
  <rect width="1000" height="1250" fill="url(#glow-1)"/>
  <circle cx="134.4" cy="1059.3" r="1.5" fill="#ece7e2" opacity="0.045"/>
    <circle cx="495.4" cy="561.9" r="1.3" fill="#ece7e2" opacity="0.077"/>
    <circle cx="93.9" cy="35.4" r="1.6" fill="#ece7e2" opacity="0.056"/>
    <circle cx="762.3" cy="2.6" r="1.1" fill="#ece7e2" opacity="0.073"/>
    <circle cx="228.8" cy="1181.6" r="1.7" fill="#ece7e2" opacity="0.032"/>
    <circle cx="25.4" cy="676.8" r="1.7" fill="#ece7e2" opacity="0.053"/>
    <circle cx="216.6" cy="527.6" r="0.5" fill="#ece7e2" opacity="0.043"/>
    <circle cx="437.9" cy="619.8" r="0.8" fill="#ece7e2" opacity="0.044"/>
    <circle cx="218.8" cy="574.5" r="0.9" fill="#ece7e2" opacity="0.031"/>
    <circle cx="837.6" cy="695.6" r="1.3" fill="#ece7e2" opacity="0.041"/>
    <circle cx="992.5" cy="1074.9" r="0.7" fill="#ece7e2" opacity="0.050"/>
    <circle cx="721.5" cy="889.0" r="1.7" fill="#ece7e2" opacity="0.055"/>
    <circle cx="830.0" cy="837.9" r="0.9" fill="#ece7e2" opacity="0.065"/>
    <circle cx="882.5" cy="1057.7" r="1.2" fill="#ece7e2" opacity="0.065"/>
    <circle cx="34.5" cy="303.4" r="1.5" fill="#ece7e2" opacity="0.055"/>
    <circle cx="173.0" cy="686.0" r="1.4" fill="#ece7e2" opacity="0.070"/>
    <circle cx="374.7" cy="548.7" r="1.2" fill="#ece7e2" opacity="0.077"/>
    <circle cx="520.9" cy="491.6" r="1.1" fill="#ece7e2" opacity="0.032"/>
    <circle cx="43.5" cy="879.2" r="1.8" fill="#ece7e2" opacity="0.066"/>
    <circle cx="393.6" cy="212.9" r="1.2" fill="#ece7e2" opacity="0.089"/>
    <circle cx="770.5" cy="674.5" r="1.6" fill="#ece7e2" opacity="0.044"/>
    <circle cx="513.8" cy="1190.6" r="1.3" fill="#ece7e2" opacity="0.058"/>
    <circle cx="269.3" cy="685.0" r="1.7" fill="#ece7e2" opacity="0.030"/>
    <circle cx="783.7" cy="1025.6" r="1.7" fill="#ece7e2" opacity="0.074"/>
    <circle cx="809.1" cy="648.3" r="1.2" fill="#ece7e2" opacity="0.056"/>
    <circle cx="56.1" cy="1087.5" r="1.2" fill="#ece7e2" opacity="0.042"/>
    <circle cx="504.7" cy="606.2" r="1.0" fill="#ece7e2" opacity="0.051"/>
    <circle cx="538.5" cy="779.4" r="1.3" fill="#ece7e2" opacity="0.057"/>
    <circle cx="28.0" cy="287.0" r="0.7" fill="#ece7e2" opacity="0.065"/>
    <circle cx="861.0" cy="998.0" r="1.5" fill="#ece7e2" opacity="0.079"/>
    <circle cx="255.3" cy="1052.2" r="1.4" fill="#ece7e2" opacity="0.035"/>
    <circle cx="16.7" cy="18.2" r="1.5" fill="#ece7e2" opacity="0.045"/>
    <circle cx="109.5" cy="781.0" r="0.9" fill="#ece7e2" opacity="0.034"/>
    <circle cx="159.6" cy="659.2" r="0.7" fill="#ece7e2" opacity="0.046"/>
    <circle cx="711.6" cy="568.4" r="0.9" fill="#ece7e2" opacity="0.058"/>
    <circle cx="23.6" cy="483.2" r="1.0" fill="#ece7e2" opacity="0.041"/>
    <circle cx="108.8" cy="1124.8" r="1.2" fill="#ece7e2" opacity="0.043"/>
    <circle cx="605.6" cy="1021.3" r="0.5" fill="#ece7e2" opacity="0.031"/>
    <circle cx="146.5" cy="898.5" r="0.7" fill="#ece7e2" opacity="0.072"/>
    <circle cx="678.2" cy="680.9" r="0.8" fill="#ece7e2" opacity="0.089"/>
    <circle cx="797.8" cy="645.7" r="0.8" fill="#ece7e2" opacity="0.069"/>
    <circle cx="394.9" cy="719.8" r="0.9" fill="#ece7e2" opacity="0.068"/>
    <circle cx="58.8" cy="373.3" r="1.8" fill="#ece7e2" opacity="0.083"/>
    <circle cx="306.4" cy="1073.1" r="0.9" fill="#ece7e2" opacity="0.086"/>
    <circle cx="743.8" cy="520.2" r="0.8" fill="#ece7e2" opacity="0.031"/>
    <circle cx="878.7" cy="47.4" r="1.6" fill="#ece7e2" opacity="0.088"/>
    <circle cx="570.3" cy="214.4" r="1.6" fill="#ece7e2" opacity="0.088"/>
    <circle cx="704.0" cy="636.1" r="1.0" fill="#ece7e2" opacity="0.051"/>
    <circle cx="205.8" cy="842.7" r="1.1" fill="#ece7e2" opacity="0.042"/>
    <circle cx="104.4" cy="832.4" r="0.9" fill="#ece7e2" opacity="0.060"/>
    <circle cx="325.3" cy="1089.5" r="1.7" fill="#ece7e2" opacity="0.031"/>
    <circle cx="200.9" cy="409.7" r="1.8" fill="#ece7e2" opacity="0.077"/>
    <circle cx="339.1" cy="266.3" r="1.4" fill="#ece7e2" opacity="0.080"/>
    <circle cx="932.2" cy="429.8" r="1.6" fill="#ece7e2" opacity="0.071"/>
    <circle cx="484.5" cy="1231.9" r="0.8" fill="#ece7e2" opacity="0.074"/>
    <circle cx="84.7" cy="212.1" r="1.7" fill="#ece7e2" opacity="0.043"/>
    <circle cx="759.1" cy="750.3" r="1.6" fill="#ece7e2" opacity="0.052"/>
    <circle cx="340.3" cy="364.0" r="1.6" fill="#ece7e2" opacity="0.066"/>
    <circle cx="954.3" cy="1109.1" r="0.7" fill="#ece7e2" opacity="0.063"/>
    <circle cx="104.3" cy="48.9" r="0.6" fill="#ece7e2" opacity="0.082"/>
  <line x1="430.0" y1="633.0" x2="570.0" y2="633.0" stroke="#a11c1c" stroke-width="1.5" opacity="0.8"/>
  <text x="500.0" y="611.0" text-anchor="middle" font-family="Georgia, 'Times New Roman', serif" font-size="52" letter-spacing="4" fill="#ece7e2" opacity="0.85">NACHTGESANG</text>
  <text x="500.0" y="659.0" text-anchor="middle" font-family="Georgia, serif" font-size="26" letter-spacing="2" fill="#948d89">Öl auf Leinwand</text>
  <text x="500.0" y="1222" text-anchor="middle" font-family="Georgia, serif" font-size="20" letter-spacing="1.5" fill="#948d89" opacity="0.6">PLATZHALTER — BILD ERSETZEN</text>
</svg>