<svg xmlns="http://www.w3.org/2000/svg" viewBox="0 0 1250 1000" width="1250" height="1000" role="img" aria-label="Platzhalterbild: STILLE WASSER">
  <defs>
    <linearGradient id="bg-5" x1="0%" y1="0%" x2="100%" y2="100%">
      <stop offset="0%" stop-color="#14100f"/>
      <stop offset="55%" stop-color="#0a0908"/>
      <stop offset="100%" stop-color="#1a0d0d"/>
    </linearGradient>
    <radialGradient id="glow-5" cx="50%" cy="42%" r="60%">
      <stop offset="0%" stop-color="#a11c1c" stop-opacity="0.16"/>
      <stop offset="100%" stop-color="#a11c1c" stop-opacity="0"/>
    </radialGradient>
  </defs>
  <rect width="1250" height="1000" fill="url(#bg-5)"/>
  <rect width="1250" height="1000" fill="url(#glow-5)"/>
  <circle cx="778.6" cy="741.8" r="1.5" fill="#ece7e2" opacity="0.087"/>
    <circle cx="924.9" cy="922.3" r="0.5" fill="#ece7e2" opacity="0.058"/>
    <circle cx="1179.2" cy="649.0" r="1.7" fill="#ece7e2" opacity="0.037"/>
    <circle cx="586.3" cy="246.6" r="1.2" fill="#ece7e2" opacity="0.064"/>
    <circle cx="16.4" cy="216.7" r="0.9" fill="#ece7e2" opacity="0.085"/>
    <circle cx="957.2" cy="159.6" r="1.5" fill="#ece7e2" opacity="0.038"/>
    <circle cx="771.8" cy="126.7" r="0.5" fill="#ece7e2" opacity="0.082"/>
    <circle cx="261.8" cy="215.5" r="1.8" fill="#ece7e2" opacity="0.082"/>
    <circle cx="361.6" cy="961.5" r="1.2" fill="#ece7e2" opacity="0.071"/>
    <circle cx="256.0" cy="941.0" r="1.4" fill="#ece7e2" opacity="0.088"/>
    <circle cx="1117.2" cy="298.8" r="1.0" fill="#ece7e2" opacity="0.040"/>
    <circle cx="182.1" cy="65.1" r="0.9" fill="#ece7e2" opacity="0.066"/>
    <circle cx="4.2" cy="677.9" r="0.9" fill="#ece7e2" opacity="0.049"/>
    <circle cx="1023.1" cy="480.7" r="0.9" fill="#ece7e2" opacity="0.059"/>
    <circle cx="880.8" cy="57.0" r="1.8" fill="#ece7e2" opacity="0.031"/>
    <circle cx="937.2" cy="844.9" r="0.5" fill="#ece7e2" opacity="0.077"/>
    <circle cx="457.7" cy="578.5" r="0.5" fill="#ece7e2" opacity="0.033"/>
    <circle cx="226.1" cy="955.2" r="0.8" fill="#ece7e2" opacity="0.075"/>
    <circle cx="1162.1" cy="942.0" r="0.9" fill="#ece7e2" opacity="0.051"/>
    <circle cx="655.9" cy="775.6" r="0.6" fill="#ece7e2" opacity="0.075"/>
    <circle cx="996.5" cy="859.7" r="0.5" fill="#ece7e2" opacity="0.087"/>
    <circle cx="114.0" cy="340.7" r="1.3" fill="#ece7e2" opacity="0.085"/>
    <circle cx="424.9" cy="924.2" r="1.2" fill="#ece7e2" opacity="0.049"/>
    <circle cx="396.0" cy="177.5" r="0.6" fill="#ece7e2" opacity="0.039"/>
    <circle cx="861.5" cy="996.7" r="0.7" fill="#ece7e2" opacity="0.033"/>
    <circle cx="1233.4" cy="533.5" r="1.0" fill="#ece7e2" opacity="0.044"/>
    <circle cx="742.5" cy="826.3" r="1.1" fill="#ece7e2" opacity="0.055"/>
    <circle cx="69.6" cy="916.1" r="0.5" fill="#ece7e2" opacity="0.060"/>
    <circle cx="1048.0" cy="130.6" r="1.5" fill="#ece7e2" opacity="0.087"/>
    <circle cx="788.0" cy="788.0" r="0.6" fill="#ece7e2" opacity="0.056"/>
    <circle cx="186.6" cy="844.7" r="0.9" fill="#ece7e2" opacity="0.057"/>
    <circle cx="1249.1" cy="852.3" r="1.8" fill="#ece7e2" opacity="0.057"/>
    <circle cx="610.2" cy="729.5" r="1.1" fill="#ece7e2" opacity="0.047"/>
    <circle cx="504.7" cy="146.5" r="1.0" fill="#ece7e2" opacity="0.089"/>
    <circle cx="1199.8" cy="627.0" r="1.1" fill="#ece7e2" opacity="0.050"/>
    <circle cx="111.4" cy="272.3" r="1.5" fill="#ece7e2" opacity="0.082"/>
    <circle cx="451.7" cy="786.0" r="1.5" fill="#ece7e2" opacity="0.072"/>
    <circle cx="830.0" cy="759.6" r="1.0" fill="#ece7e2" opacity="0.072"/>
    <circle cx="351.1" cy="485.7" r="1.5" fill="#ece7e2" opacity="0.071"/>
    <circle cx="367.3" cy="945.5" r="1.3" fill="#ece7e2" opacity="0.065"/>
    <circle cx="14.5" cy="547.0" r="0.8" fill="#ece7e2" opacity="0.070"/>
    <circle cx="578.7" cy="816.7" r="1.3" fill="#ece7e2" opacity="0.078"/>
    <circle cx="434.9" cy="644.1" r="1.5" fill="#ece7e2" opacity="0.080"/>
    <circle cx="437.6" cy="842.9" r="1.6" fill="#ece7e2" opacity="0.071"/>
    <circle cx="1220.2" cy="956.5" r="1.2" fill="#ece7e2" opacity="0.062"/>
    <circle cx="207.7" cy="836.6" r="1.7" fill="#ece7e2" opacity="0.059"/>
    <circle cx="864.3" cy="719.7" r="1.4" fill="#ece7e2" opacity="0.040"/>
    <circle cx="975.5" cy="580.8" r="1.4" fill="#ece7e2" opacity="0.055"/>
    <circle cx="779.7" cy="774.7" r="1.3" fill="#ece7e2" opacity="0.073"/>
    <circle cx="34.5" cy="160.0" r="1.1" fill="#ece7e2" opacity="0.069"/>
    <circle cx="273.8" cy="686.0" r="1.3" fill="#ece7e2" opacity="0.033"/>
    <circle cx="589.5" cy="226.2" r="0.6" fill="#ece7e2" opacity="0.038"/>
    <circle cx="396.7" cy="181.5" r="0.8" fill="#ece7e2" opacity="0.032"/>
    <circle cx="581.7" cy="380.3" r="1.3" fill="#ece7e2" opacity="0.065"/>
    <circle cx="297.3" cy="903.2" r="0.5" fill="#ece7e2" opacity="0.054"/>
    <circle cx="348.2" cy="410.0" r="0.6" fill="#ece7e2" opacity="0.080"/>
    <circle cx="467.3" cy="36.1" r="1.3" fill="#ece7e2" opacity="0.036"/>
    <circle cx="681.5" cy="339.4" r="1.3" fill="#ece7e2" opacity="0.087"/>
    <circle cx="1023.2" cy="419.1" r="1.6" fill="#ece7e2" opacity="0.069"/>
    <circle cx="461.8" cy="142.1" r="1.3" fill="#ece7e2" opacity="0.064"/>
  <line x1="555.0" y1="508.0" x2="695.0" y2="508.0" stroke="#a11c1c" stroke-width="1.5" opacity="0.8"/>
  <text x="625.0" y="486.0" text-anchor="middle" font-family="Georgia, 'Times New Roman', serif" font-size="52" letter-spacing="4" fill="#ece7e2" opacity="0.85">STILLE WASSER</text>
  <text x="625.0" y="534.0" text-anchor="middle" font-family="Georgia, serif" font-size="26" letter-spacing="2" fill="#948d89">Tusche auf Papier</text>
  <text x="625.0" y="972" text-anchor="middle" font-family="Georgia, serif" font-size="20" letter-spacing="1.5" fill="#948d89" opacity="0.6">PLATZHALTER — BILD ERSETZEN</text>
</svg>