<svg xmlns="http://www.w3.org/2000/svg" viewBox="0 0 1000 1250" width="1000" height="1250" role="img" aria-label="Platzhalterbild: MIRA KOHL">
  <defs>
    <linearGradient id="bg-9" x1="0%" y1="0%" x2="100%" y2="100%">
      <stop offset="0%" stop-color="#14100f"/>
      <stop offset="55%" stop-color="#0a0908"/>
      <stop offset="100%" stop-color="#1a0d0d"/>
    </linearGradient>
    <radialGradient id="glow-9" cx="50%" cy="42%" r="60%">
      <stop offset="0%" stop-color="#a11c1c" stop-opacity="0.16"/>
      <stop offset="100%" stop-color="#a11c1c" stop-opacity="0"/>
    </radialGradient>
  </defs>
  <rect width="1000" height="1250" fill="url(#bg-9)"/>
  <rect width="1000" height="1250" fill="url(#glow-9)"/>
  <circle cx="463.0" cy="466.6" r="0.7" fill="#ece7e2" opacity="0.082"/>
    <circle cx="6.4" cy="628.5" r="1.7" fill="#ece7e2" opacity="0.035"/>
    <circle cx="554.3" cy="770.8" r="0.6" fill="#ece7e2" opacity="0.053"/>
    <circle cx="703.5" cy="565.0" r="1.4" fill="#ece7e2" opacity="0.039"/>
    <circle cx="238.0" cy="138.7" r="1.2" fill="#ece7e2" opacity="0.085"/>
    <circle cx="590.4" cy="967.8" r="1.0" fill="#ece7e2" opacity="0.075"/>
    <circle cx="101.7" cy="364.0" r="1.4" fill="#ece7e2" opacity="0.074"/>
    <circle cx="421.8" cy="109.6" r="0.8" fill="#ece7e2" opacity="0.043"/>
    <circle cx="281.2" cy="1011.9" r="0.8" fill="#ece7e2" opacity="0.083"/>
    <circle cx="879.4" cy="68.5" r="1.0" fill="#ece7e2" opacity="0.060"/>
    <circle cx="23.5" cy="530.9" r="1.7" fill="#ece7e2" opacity="0.037"/>
    <circle cx="596.8" cy="151.5" r="1.3" fill="#ece7e2" opacity="0.084"/>
    <circle cx="203.1" cy="10.3" r="0.6" fill="#ece7e2" opacity="0.062"/>
    <circle cx="17.5" cy="106.0" r="1.1" fill="#ece7e2" opacity="0.085"/>
    <circle cx="420.1" cy="497.7" r="1.3" fill="#ece7e2" opacity="0.036"/>
    <circle cx="579.8" cy="215.7" r="1.3" fill="#ece7e2" opacity="0.087"/>
    <circle cx="54.2" cy="693.8" r="1.3" fill="#ece7e2" opacity="0.039"/>
    <circle cx="268.3" cy="1243.6" r="1.8" fill="#ece7e2" opacity="0.037"/>
    <circle cx="705.5" cy="1188.7" r="0.8" fill="#ece7e2" opacity="0.067"/>
    <circle cx="43.0" cy="457.4" r="1.4" fill="#ece7e2" opacity="0.065"/>
    <circle cx="774.6" cy="108.4" r="1.0" fill="#ece7e2" opacity="0.082"/>
    <circle cx="584.1" cy="564.1" r="1.0" fill="#ece7e2" opacity="0.089"/>
    <circle cx="574.4" cy="23.0" r="1.5" fill="#ece7e2" opacity="0.050"/>
    <circle cx="433.6" cy="266.8" r="1.1" fill="#ece7e2" opacity="0.049"/>
    <circle cx="88.8" cy="786.9" r="0.6" fill="#ece7e2" opacity="0.077"/>
    <circle cx="25.4" cy="975.9" r="1.5" fill="#ece7e2" opacity="0.060"/>
    <circle cx="709.4" cy="310.3" r="1.5" fill="#ece7e2" opacity="0.056"/>
    <circle cx="231.0" cy="1205.1" r="1.0" fill="#ece7e2" opacity="0.052"/>
    <circle cx="859.9" cy="461.7" r="1.4" fill="#ece7e2" opacity="0.040"/>
    <circle cx="843.3" cy="323.6" r="0.6" fill="#ece7e2" opacity="0.089"/>
    <circle cx="172.8" cy="1183.1" r="1.8" fill="#ece7e2" opacity="0.066"/>
    <circle cx="11.9" cy="76.1" r="0.8" fill="#ece7e2" opacity="0.053"/>
    <circle cx="611.5" cy="1208.0" r="1.0" fill="#ece7e2" opacity="0.038"/>
    <circle cx="561.9" cy="171.6" r="0.6" fill="#ece7e2" opacity="0.063"/>
    <circle cx="696.0" cy="82.0" r="1.1" fill="#ece7e2" opacity="0.072"/>
    <circle cx="764.2" cy="478.8" r="1.7" fill="#ece7e2" opacity="0.040"/>
    <circle cx="715.5" cy="964.6" r="1.6" fill="#ece7e2" opacity="0.060"/>
    <circle cx="99.2" cy="60.6" r="1.2" fill="#ece7e2" opacity="0.040"/>
    <circle cx="629.7" cy="105.3" r="1.5" fill="#ece7e2" opacity="0.043"/>
    <circle cx="13.0" cy="219.8" r="1.1" fill="#ece7e2" opacity="0.064"/>
    <circle cx="388.3" cy="216.3" r="1.1" fill="#ece7e2" opacity="0.087"/>
    <circle cx="535.4" cy="1176.6" r="0.5" fill="#ece7e2" opacity="0.090"/>
    <circle cx="889.0" cy="680.4" r="1.2" fill="#ece7e2" opacity="0.062"/>
    <circle cx="909.5" cy="82.0" r="1.3" fill="#ece7e2" opacity="0.063"/>
    <circle cx="300.3" cy="906.2" r="1.4" fill="#ece7e2" opacity="0.036"/>
    <circle cx="699.5" cy="566.9" r="1.1" fill="#ece7e2" opacity="0.068"/>
    <circle cx="52.9" cy="753.6" r="1.0" fill="#ece7e2" opacity="0.083"/>
    <circle cx="231.1" cy="1028.9" r="1.4" fill="#ece7e2" opacity="0.067"/>
    <circle cx="875.8" cy="45.0" r="1.3" fill="#ece7e2" opacity="0.067"/>
    <circle cx="678.1" cy="508.3" r="0.6" fill="#ece7e2" opacity="0.041"/>
    <circle cx="608.1" cy="226.6" r="0.6" fill="#ece7e2" opacity="0.051"/>
    <circle cx="470.2" cy="669.5" r="0.5" fill="#ece7e2" opacity="0.077"/>
    <circle cx="333.8" cy="978.5" r="0.5" fill="#ece7e2" opacity="0.087"/>
    <circle cx="590.2" cy="1220.5" r="1.8" fill="#ece7e2" opacity="0.080"/>
    <circle cx="106.2" cy="436.0" r="0.8" fill="#ece7e2" opacity="0.077"/>
    <circle cx="192.2" cy="276.4" r="0.6" fill="#ece7e2" opacity="0.037"/>
    <circle cx="938.1" cy="1220.2" r="1.0" fill="#ece7e2" opacity="0.074"/>
    <circle cx="467.5" cy="652.5" r="1.0" fill="#ece7e2" opacity="0.068"/>
    <circle cx="236.2" cy="320.5" r="1.2" fill="#ece7e2" opacity="0.042"/>
    <circle cx="439.3" cy="1179.9" r="0.5" fill="#ece7e2" opacity="0.036"/>
  <line x1="430.0" y1="633.0" x2="570.0" y2="633.0" stroke="#a11c1c" stroke-width="1.5" opacity="0.8"/>
  <text x="500.0" y="611.0" text-anchor="middle" font-family="Georgia, 'Times New Roman', serif" font-size="52" letter-spacing="4" fill="#ece7e2" opacity="0.85">MIRA KOHL</text>
  <text x="500.0" y="659.0" text-anchor="middle" font-family="Georgia, serif" font-size="26" letter-spacing="2" fill="#948d89">Atelieraufnahme</text>
  <text x="500.0" y="1222" text-anchor="middle" font-family="Georgia, serif" font-size="20" letter-spacing="1.5" fill="#948d89" opacity="0.6">PLATZHALTER — BILD ERSETZEN</text>
</svg>